Coordinates
version=1
nRows=22
nColumns=34
inDegrees=no

Units are S.I. units (second, meters, Newtons, ...)
If the header above contains a line with 'inDegrees', this indicates whether rotational values are in degrees (yes) or radians (no).

endheader
time	pelvis_tilt	pelvis_list	pelvis_rotation	pelvis_tx	pelvis_ty	pelvis_tz	hip_flexion_r	hip_adduction_r	hip_rotation_r	knee_angle_r	ankle_angle_r	subtalar_angle_r	mtp_angle_r	hip_flexion_l	hip_adduction_l	hip_rotation_l	knee_angle_l	ankle_angle_l	subtalar_angle_l	mtp_angle_l	lumbar_extension	lumbar_bending	lumbar_rotation	arm_flex_r	arm_add_r	arm_rot_r	elbow_flex_r	pro_sup_r	arm_flex_l	arm_add_l	arm_rot_l	elbow_flex_l	pro_sup_l
2.42	-0.205019	-0.0569	-0.00997005	-0.145615	1.43375	-0.567996	0.203085	0.0658465	-0.241728	0.104704	-0.409298	0.0562376	-0.115704	0.214752	-0.0860363	-0.275886	0.140257	-0.308445	0.309633	-0.115704	0.166541	0.0640124	0.0021194	-0.0463892	-0.921583	-0.47884	2.35888	1.72434	5.41252	-0.775481	5.64325	2.32875	1.61283
2.43	-0.21252	-0.05783	-0.00951166	-0.144879	1.44217	-0.56771	0.204913	0.0693031	-0.252146	0.0877423	-0.397143	0.0675791	-0.115704	0.218623	-0.0860907	-0.291245	0.12652	-0.281911	0.324573	-0.115704	0.177503	0.0660677	0.0166617	-0.146489	-0.863661	-0.524605	2.3369	1.76051	5.46213	-0.742691	5.75234	2.2671	1.64149
2.44	-0.219562	-0.0594684	-0.00732022	-0.144456	1.4495	-0.567569	0.207995	0.0725187	-0.260925	0.0748358	-0.38649	0.0751841	-0.115704	0.22418	-0.0870967	-0.303896	0.116156	-0.258546	0.335684	-0.115704	0.187645	0.0684717	0.0240767	-0.220343	-0.803759	-0.546547	2.30884	1.79257	5.50202	-0.704207	5.8428	2.20699	1.66432
2.45	-0.225014	-0.0617172	-0.00352902	-0.144347	1.45586	-0.567563	0.211311	0.0753895	-0.267401	0.0666699	-0.37766	0.0790422	-0.115704	0.230112	-0.0889608	-0.313211	0.1092	-0.239323	0.342633	-0.115704	0.195443	0.0710515	0.0254308	-0.272862	-0.745178	-0.54945	2.2769	1.81801	5.53264	-0.661779	5.9158	2.15008	1.68233
2.46	-0.228146	-0.0644151	0.00165957	-0.144526	1.46131	-0.567678	0.21405	0.0777855	-0.271323	0.0633508	-0.370839	0.0797195	-0.115704	0.23536	-0.0915076	-0.319115	0.105337	-0.224719	0.345703	-0.115704	0.199917	0.0736342	0.0220966	-0.309748	-0.690414	-0.538687	2.24311	1.83597	5.55527	-0.617336	5.9736	2.09752	1.69722
2.47	-0.228667	-0.0673582	0.00798892	-0.144945	1.4659	-0.567904	0.215708	0.0795725	-0.272735	0.0645156	-0.366087	0.0780716	-0.115704	0.239246	-0.0945156	-0.321988	0.104058	-0.21468	0.345681	-0.115704	0.200676	0.0760599	0.015551	-0.336551	-0.641083	-0.519376	2.20915	1.84703	5.57163	-0.572694	6.01904	2.04994	1.71086
2.48	-0.226707	-0.0703262	0.015162	-0.145546	1.46965	-0.568225	0.21613	0.0806351	-0.271843	0.0694686	-0.363352	0.0749862	-0.115704	0.241513	-0.0977524	-0.322496	0.104775	-0.208696	0.343648	-0.115704	0.197871	0.0781905	0.00720575	-0.357997	-0.597978	-0.495812	2.17628	1.85267	5.58356	-0.529354	6.05506	2.00751	1.72463
2.49	-0.222738	-0.0731092	0.0228542	-0.146274	1.47252	-0.568623	0.215479	0.0808956	-0.268891	0.0773177	-0.362499	0.0712086	-0.115704	0.242278	-0.101004	-0.321425	0.106889	-0.205969	0.340736	-0.115704	0.192093	0.0799112	-0.00171803	-0.377631	-0.561219	-0.471171	2.14532	1.85485	5.59269	-0.488403	6.08433	1.97012	1.73898
2.5	-0.217451	-0.0755285	0.0307294	-0.147078	1.47449	-0.56907	0.214147	0.0803238	-0.26409	0.0870939	-0.36332	0.0672772	-0.115704	0.241927	-0.104093	-0.319511	0.109812	-0.205608	0.337922	-0.115704	0.184219	0.0811294	-0.0102677	-0.39773	-0.530448	-0.447464	2.11669	1.85555	5.60026	-0.450498	6.10905	1.93746	1.75343
2.51	-0.211626	-0.0774512	0.0384635	-0.147913	1.47548	-0.56953	0.212643	0.0789371	-0.257615	0.0978452	-0.365546	0.0635604	-0.115704	0.240973	-0.106884	-0.317313	0.112977	-0.206795	0.335852	-0.115704	0.175246	0.0817706	-0.0177886	-0.419427	-0.505017	-0.425673	2.09045	1.85647	5.60703	-0.415922	6.13078	1.90919	1.76684
2.52	-0.206001	-0.078797	0.0457732	-0.148745	1.47546	-0.569966	0.211471	0.0767919	-0.249659	0.108698	-0.368852	0.060359	-0.115704	0.239926	-0.109274	-0.315107	0.115845	-0.208879	0.334686	-0.115704	0.16614	0.0817819	-0.0239026	-0.442975	-0.484146	-0.406012	2.06645	1.8589	5.61335	-0.384677	6.15046	1.88495	1.77806
2.53	-0.201177	-0.0795394	0.0524443	-0.149544	1.47437	-0.57034	0.211027	0.0739723	-0.240501	0.118884	-0.372859	0.0579985	-0.115704	0.239196	-0.111194	-0.312874	0.117935	-0.211379	0.334079	-0.115704	0.157715	0.0811373	-0.0284562	-0.468061	-0.467032	-0.388242	2.04437	1.86364	5.61926	-0.356596	6.16853	1.86448	1.7863
2.54	-0.197553	-0.0797034	0.0583536	-0.15029	1.47219	-0.570625	0.211526	0.0705841	-0.230549	0.127746	-0.377155	0.0568594	-0.115704	0.239048	-0.112609	-0.310399	0.118873	-0.213953	0.333364	-0.115704	0.150559	0.0798458	-0.0314582	-0.49409	-0.452914	-0.371956	2.02387	1.87099	5.62461	-0.331442	6.18505	1.84758	1.79133
2.55	-0.195317	-0.0793663	0.0634785	-0.15097	1.46888	-0.570808	0.212981	0.0667575	-0.220339	0.134734	-0.381313	0.0573247	-0.115704	0.239611	-0.113541	-0.307449	0.118462	-0.216353	0.331909	-0.115704	0.145015	0.0779635	-0.0330245	-0.520413	-0.441111	-0.356792	2.00461	1.88088	5.6292	-0.30898	6.19988	1.83416	1.79346
2.56	-0.19448	-0.0786605	0.0678924	-0.151575	1.46445	-0.570887	0.215245	0.0626552	-0.210503	0.139408	-0.384917	0.0596801	-0.115704	0.240934	-0.114089	-0.303904	0.116724	-0.218387	0.329413	-0.115704	0.141216	0.0756037	-0.0333356	-0.546472	-0.431031	-0.34255	1.98632	1.89282	5.63287	-0.289027	6.21282	1.82416	1.79337
2.57	-0.194933	-0.0777674	0.0717466	-0.15211	1.45891	-0.570877	0.218084	0.058469	-0.201741	0.141476	-0.387587	0.0640184	-0.115704	0.24304	-0.114428	-0.299782	0.113884	-0.219875	0.325987	-0.115704	0.139143	0.0729366	-0.0326068	-0.571873	-0.42218	-0.32921	1.96881	1.90592	5.63554	-0.271469	6.2238	1.81755	1.79196
2.58	-0.196506	-0.0768901	0.0752356	-0.152587	1.45225	-0.570798	0.221267	0.0543975	-0.194764	0.140837	-0.389018	0.0701689	-0.115704	0.245958	-0.114778	-0.29516	0.110312	-0.220607	0.321995	-0.115704	0.138683	0.0701632	-0.0310584	-0.596383	-0.414159	-0.316898	1.95198	1.91904	5.63721	-0.256263	6.23284	1.81423	1.79019
2.59	-0.19899	-0.0762017	0.0785452	-0.153025	1.4445	-0.570672	0.224605	0.0506027	-0.190232	0.13761	-0.389025	0.0776748	-0.115704	0.249691	-0.115333	-0.290084	0.106419	-0.220352	0.317839	-0.115704	0.139634	0.0674644	-0.0288798	-0.619891	-0.406648	-0.305815	1.93579	1.93121	5.63799	-0.24342	6.24017	1.81404	1.78887
2.6	-0.202132	-0.0757879	0.0817964	-0.153449	1.43569	-0.570516	0.227943	0.0471671	-0.188674	0.132126	-0.387599	0.0858354	-0.115704	0.254153	-0.116216	-0.284601	0.102563	-0.218909	0.313847	-0.115704	0.14169	0.0649442	-0.0261972	-0.642327	-0.399408	-0.296156	1.92021	1.94184	5.63801	-0.23296	6.24606	1.81673	1.78862
2.61	-0.205632	-0.0756225	0.0850116	-0.153879	1.42584	-0.570332	0.231152	0.0440756	-0.190451	0.124886	-0.384949	0.0938037	-0.115704	0.259135	-0.117453	-0.278838	0.0990051	-0.216204	0.310249	-0.115704	0.14444	0.062603	-0.0230636	-0.663601	-0.392273	-0.288036	1.90524	1.95082	5.63741	-0.224873	6.25078	1.82202	1.78983
2.62	-0.209185	-0.0755873	0.0881215	-0.154334	1.41501	-0.570109	0.234131	0.0412311	-0.19574	0.116491	-0.381511	0.100712	-0.115704	0.264349	-0.119001	-0.273047	0.0959015	-0.212386	0.307157	-0.115704	0.147419	0.0603507	-0.0194848	-0.683568	-0.38515	-0.281448	1.89086	1.95844	5.63632	-0.219067	6.25453	1.8296	1.7927
2.63	-0.212517	-0.0755172	0.0910016	-0.154829	1.40322	-0.56983	0.236839	0.0384851	-0.204547	0.107582	-0.377939	0.105792	-0.115704	0.269502	-0.120786	-0.267604	0.0933379	-0.207909	0.304549	-0.115704	0.150181	0.0580464	-0.0154619	-0.702013	-0.378017	-0.276266	1.87709	1.96522	5.63482	-0.215336	6.25732	1.83913	1.79722
